<svg xmlns="http://www.w3.org/2000/svg" xmlns:xlink="http://www.w3.org/1999/xlink" width="1080" zoomAndPan="magnify" viewBox="0 0 810 809.999993" height="1080" preserveAspectRatio="xMidYMid meet" version="1.0"><defs><clipPath id="4e24e3e9fe"><path d="M 51.097656 154.039062 L 759.097656 154.039062 L 759.097656 688 L 51.097656 688 Z M 51.097656 154.039062 " clip-rule="nonzero"/></clipPath></defs><rect x="-81" width="972" fill="#ffffff" y="-80.999999" height="971.999992" fill-opacity="1"/><rect x="-81" width="972" fill="#ffffff" y="-80.999999" height="971.999992" fill-opacity="1"/><g clip-path="url(#4e24e3e9fe)"><path fill="#8b6f5c" d="M 414.527344 237.914062 C 414.527344 243.128906 410.300781 247.355469 405.085938 247.355469 C 399.875 247.355469 395.648438 243.128906 395.648438 237.914062 L 395.648438 163.589844 C 395.648438 158.378906 399.875 154.148438 405.085938 154.148438 C 410.300781 154.148438 414.527344 158.378906 414.527344 163.589844 Z M 590.59375 327.980469 C 561.136719 327.980469 537.257812 351.859375 537.257812 381.3125 C 537.257812 410.769531 561.136719 434.648438 590.59375 434.648438 C 620.046875 434.648438 643.929688 410.769531 643.929688 381.3125 C 643.929688 351.859375 620.046875 327.980469 590.59375 327.980469 Z M 523.847656 503.296875 C 523.796875 499.300781 522.933594 495.671875 521.261719 492.421875 C 519.277344 488.582031 516.292969 485.480469 512.320312 483.140625 C 511.710938 482.78125 511.074219 482.496094 510.425781 482.285156 C 489.335938 474.105469 470.835938 464.105469 454.808594 452.640625 C 440.15625 442.160156 427.582031 430.441406 416.988281 417.753906 C 424.769531 406.910156 431.359375 395.5 436.8125 383.65625 C 451.417969 402.4375 467.320312 416.445312 484.09375 427.382812 C 503.925781 440.316406 524.785156 448.878906 546.082031 455.988281 L 581.214844 501.714844 C 581.511719 502.105469 581.84375 502.476562 582.210938 502.824219 C 585.976562 506.40625 591.941406 506.261719 595.523438 502.492188 L 618.210938 478.644531 C 636.640625 485.242188 654.804688 493.304688 672.144531 504.835938 C 691.089844 517.433594 709.195312 534.25 725.800781 557.953125 C 733.871094 570.363281 740.585938 584.347656 745.933594 599.96875 L 745.933594 600.007812 C 751.363281 615.832031 755.382812 633.265625 757.992188 652.351562 L 759.011719 660.585938 C 758.050781 665.347656 755.480469 669.070312 752.09375 671.546875 C 749.246094 673.628906 745.8125 674.890625 742.230469 675.214844 C 738.609375 675.542969 734.816406 674.910156 731.300781 673.207031 C 726.277344 670.773438 721.753906 666.046875 718.9375 658.671875 C 713.191406 631.558594 705.695312 608.765625 696.46875 590.308594 C 686.863281 571.089844 675.335938 556.507812 661.902344 546.570312 C 657.726562 543.476562 651.832031 544.351562 648.734375 548.523438 C 647.484375 550.210938 646.882812 552.179688 646.886719 554.128906 L 646.855469 677.234375 C 646.855469 680.1875 645.664062 682.859375 643.753906 684.769531 C 641.785156 686.703125 639.113281 687.90625 636.183594 687.90625 L 534.53125 687.90625 C 531.597656 687.90625 528.929688 686.703125 526.992188 684.769531 L 526.625 684.417969 C 524.910156 682.539062 523.859375 680.011719 523.859375 677.234375 Z M 191.96875 478.644531 C 173.535156 485.242188 155.367188 493.308594 138.03125 504.835938 C 119.085938 517.433594 100.980469 534.25 84.367188 557.949219 C 76.304688 570.363281 69.589844 584.347656 64.226562 600 C 58.8125 615.835938 54.785156 633.265625 52.183594 652.351562 L 51.160156 660.585938 C 52.128906 665.34375 54.6875 669.070312 58.078125 671.546875 C 60.925781 673.628906 64.367188 674.890625 67.949219 675.214844 C 71.566406 675.542969 75.359375 674.910156 78.878906 673.207031 C 83.898438 670.773438 88.417969 666.046875 91.238281 658.671875 C 96.984375 631.558594 104.476562 608.765625 113.707031 590.308594 C 123.3125 571.089844 134.839844 556.507812 148.273438 546.570312 C 152.449219 543.476562 158.339844 544.351562 161.4375 548.523438 C 162.691406 550.210938 163.292969 552.179688 163.320312 554.128906 L 163.320312 677.234375 C 163.320312 680.1875 164.507812 682.859375 166.457031 684.769531 C 168.390625 686.703125 171.058594 687.90625 173.992188 687.90625 L 275.644531 687.90625 C 278.574219 687.90625 281.246094 686.703125 283.179688 684.769531 L 283.550781 684.417969 C 285.261719 682.539062 286.316406 680.011719 286.316406 677.234375 L 286.328125 503.347656 C 286.371094 499.324219 287.234375 495.675781 288.914062 492.421875 C 290.886719 488.601562 293.882812 485.5 297.894531 483.140625 C 298.335938 482.878906 298.792969 482.660156 299.257812 482.480469 C 331.003906 470.222656 356.867188 453.894531 377.28125 434.636719 C 398.859375 414.277344 414.363281 390.589844 424.300781 364.960938 C 425.640625 361.148438 425.53125 357.113281 424.214844 353.535156 C 422.890625 349.953125 420.371094 346.824219 416.878906 344.808594 C 413.386719 342.816406 409.410156 342.195312 405.644531 342.839844 C 402.171875 343.4375 398.882812 345.125 396.335938 347.8125 C 378.277344 381.929688 357.203125 405.027344 334.289062 421.707031 C 312.035156 437.90625 288.351562 447.878906 264.097656 455.984375 L 228.964844 501.714844 C 228.664062 502.105469 228.335938 502.476562 227.96875 502.824219 C 224.199219 506.40625 218.234375 506.261719 214.652344 502.492188 Z M 219.582031 327.980469 C 249.035156 327.980469 272.917969 351.859375 272.917969 381.3125 C 272.917969 410.769531 249.035156 434.648438 219.582031 434.648438 C 190.125 434.648438 166.25 410.769531 166.25 381.3125 C 166.25 351.859375 190.125 327.980469 219.582031 327.980469 Z M 467.957031 267.6875 C 464.472656 271.53125 458.523438 271.832031 454.679688 268.347656 C 450.828125 264.867188 450.53125 258.917969 454.015625 255.070312 L 503.855469 199.929688 C 507.335938 196.082031 513.28125 195.785156 517.132812 199.265625 C 520.980469 202.75 521.273438 208.695312 517.796875 212.546875 Z M 356.160156 255.070312 C 359.644531 258.917969 359.34375 264.867188 355.496094 268.347656 C 351.648438 271.832031 345.699219 271.53125 342.21875 267.6875 L 292.378906 212.546875 C 288.898438 208.695312 289.195312 202.75 293.042969 199.265625 C 296.894531 195.785156 302.839844 196.082031 306.320312 199.929688 Z M 356.160156 255.070312 " fill-opacity="1" fill-rule="evenodd"/></g></svg>