<svg xmlns="http://www.w3.org/2000/svg" xmlns:xlink="http://www.w3.org/1999/xlink" width="1080" zoomAndPan="magnify" viewBox="0 0 810 809.999993" height="1080" preserveAspectRatio="xMidYMid meet" version="1.0"><defs><clipPath id="ba1ab867e0"><path d="M 82 100.207031 L 720.75 100.207031 L 720.75 709 L 82 709 Z M 82 100.207031 " clip-rule="nonzero"/></clipPath></defs><g clip-path="url(#ba1ab867e0)"><path fill="#8b6f5c" d="M 563.226562 205.25 C 563.226562 175.882812 587.035156 152.070312 616.40625 152.070312 C 645.777344 152.070312 669.585938 175.882812 669.585938 205.25 C 669.585938 234.621094 645.777344 258.429688 616.40625 258.429688 C 587.035156 258.429688 563.226562 234.621094 563.226562 205.25 Z M 471.773438 308.195312 C 412.628906 248.050781 334.003906 279.773438 335.28125 349.722656 C 336.425781 412.554688 422.355469 475.523438 469.0625 502.960938 C 470.78125 503.96875 472.765625 503.96875 474.488281 502.960938 C 521.195312 475.519531 607.132812 412.546875 608.265625 349.710938 C 609.53125 279.761719 530.914062 248.0625 471.773438 308.195312 Z M 327.144531 258.429688 C 356.511719 258.429688 380.324219 234.621094 380.324219 205.25 C 380.324219 175.882812 356.511719 152.070312 327.144531 152.070312 C 297.773438 152.070312 273.964844 175.882812 273.964844 205.25 C 273.964844 234.621094 297.773438 258.429688 327.144531 258.429688 Z M 471.773438 281.644531 C 495.097656 263.546875 523.953125 253.152344 553.15625 257.492188 C 533.871094 233.953125 504.578125 218.933594 471.777344 218.933594 C 438.972656 218.933594 409.679688 233.953125 390.394531 257.488281 C 419.597656 253.152344 448.449219 263.546875 471.773438 281.644531 Z M 471.773438 206.511719 C 501.144531 206.511719 524.953125 182.699219 524.953125 153.332031 C 524.953125 123.960938 501.144531 100.152344 471.773438 100.152344 C 442.40625 100.152344 418.59375 123.960938 418.59375 153.332031 C 418.597656 182.699219 442.40625 206.511719 471.773438 206.511719 Z M 226.804688 364.714844 L 316.871094 364.714844 C 310.691406 330.074219 323.628906 293.773438 350.992188 273.574219 C 343.332031 271.796875 335.347656 270.851562 327.144531 270.851562 C 274.351562 270.851562 230.652344 309.746094 223.117188 360.441406 C 222.777344 362.703125 224.515625 364.714844 226.804688 364.714844 Z M 223.519531 679.730469 C 225.433594 683.109375 224.222656 687.511719 220.808594 689.441406 L 188.339844 707.820312 C 184.957031 709.734375 180.558594 708.519531 178.625 705.109375 L 83.160156 536.429688 C 81.25 533.050781 82.460938 528.648438 85.871094 526.71875 L 118.347656 508.339844 C 121.710938 506.4375 126.066406 507.609375 128.050781 511.050781 C 160.625 566.417969 191.828125 623.730469 223.519531 679.730469 Z M 127.929688 541.238281 C 127.003906 534.902344 121.117188 530.515625 114.78125 531.441406 C 108.445312 532.367188 104.0625 538.257812 104.988281 544.589844 C 105.914062 550.925781 111.800781 555.3125 118.136719 554.386719 C 124.472656 553.460938 128.859375 547.574219 127.929688 541.238281 Z M 666.339844 481.488281 C 648.972656 472.691406 622.234375 485.140625 605.839844 494.691406 L 490.109375 562.097656 C 471.921875 572.6875 452.660156 575.59375 431.996094 572.289062 C 427.734375 571.9375 421.957031 570.679688 417.589844 569.953125 C 400.960938 567.179688 381.3125 561.109375 364.910156 556.425781 C 356.667969 554.070312 348.296875 551.679688 340.058594 549.472656 C 334.761719 548.058594 331.617188 542.617188 333.03125 537.320312 C 334.445312 532.027344 339.886719 528.878906 345.183594 530.296875 C 354.058594 532.671875 362.261719 535.015625 370.347656 537.324219 C 387.328125 542.175781 403.707031 547.296875 420.4375 550.316406 C 433.222656 552.625 444.429688 547.195312 447.898438 534.234375 C 451.183594 521.964844 443.429688 510.347656 431.832031 506.339844 L 336.851562 478.203125 C 327.441406 475.417969 319.277344 471.851562 312.339844 469.601562 C 290.140625 462.402344 268.96875 472.046875 249.945312 483.0625 L 163.359375 533.195312 L 220.988281 635.019531 L 244.480469 621.457031 C 246.839844 620.101562 249.523438 619.828125 251.96875 620.464844 L 404.304688 661.269531 C 423.59375 666.4375 441.851562 664.097656 458.90625 653.601562 C 528.914062 610.503906 598.929688 567.421875 668.929688 524.316406 C 675.96875 519.984375 679.441406 510.054688 678.4375 500.394531 C 677.613281 492.417969 673.652344 485.191406 666.339844 481.488281 Z M 720.433594 360.4375 C 712.898438 309.746094 669.195312 270.851562 616.40625 270.851562 C 608.203125 270.851562 600.21875 271.792969 592.554688 273.574219 C 619.917969 293.773438 632.851562 330.074219 626.675781 364.714844 L 716.746094 364.714844 C 719.03125 364.714844 720.769531 362.703125 720.433594 360.4375 Z M 720.433594 360.4375 " fill-opacity="1" fill-rule="nonzero"/></g></svg>