<svg xmlns="http://www.w3.org/2000/svg" xmlns:xlink="http://www.w3.org/1999/xlink" width="1080" zoomAndPan="magnify" viewBox="0 0 810 809.999993" height="1080" preserveAspectRatio="xMidYMid meet" version="1.0"><defs><clipPath id="8ccc58b67c"><path d="M 104.519531 104.519531 L 705.269531 104.519531 L 705.269531 705.269531 L 104.519531 705.269531 Z M 104.519531 104.519531 " clip-rule="nonzero"/></clipPath></defs><g clip-path="url(#8ccc58b67c)"><path fill="#8b6f5c" d="M 114.726562 442.617188 L 137.179688 424.03125 C 137.40625 427.167969 172.925781 467.050781 175.460938 470.539062 C 192.761719 489.601562 213.113281 506.28125 236.625 517.03125 L 141.269531 632.242188 C 137.878906 636.15625 140.941406 642.578125 146.070312 642.453125 C 147.863281 642.453125 149.640625 641.679688 150.875 640.191406 L 248.777344 521.90625 C 274.074219 530.691406 291.226562 528.113281 291.984375 527.992188 C 295.375 527.449219 297.671875 524.273438 297.148438 520.882812 C 296.621094 517.488281 293.429688 515.164062 290.046875 515.675781 C 256.835938 519.125 213.050781 494.785156 184.894531 462.386719 L 150.640625 422.097656 C 145.234375 415.984375 146.160156 405.820312 152.625 400.808594 C 158.613281 395.730469 168.292969 396.523438 173.347656 402.5625 C 173.3125 402.582031 208 443.460938 208.003906 443.496094 C 210.238281 446.132812 214.175781 446.441406 216.789062 444.222656 C 219.417969 442 219.742188 438.066406 217.519531 435.4375 L 183.085938 394.78125 C 182.949219 394.542969 174.890625 385.011719 174.738281 384.804688 C 174.691406 384.753906 174.640625 384.695312 174.589844 384.632812 C 169.367188 378.613281 170.238281 368.71875 176.421875 363.695312 C 182.683594 358.375 192.183594 359.113281 197.527344 365.351562 C 197.492188 365.359375 240.804688 416.441406 240.804688 416.464844 C 243.039062 419.101562 246.976562 419.410156 249.59375 417.191406 C 252.21875 414.964844 252.546875 411.035156 250.320312 408.40625 L 207.183594 357.476562 C 207.144531 357.375 196.109375 344.25 196.042969 344.15625 C 190.746094 338.144531 191.585938 328.1875 197.800781 323.136719 C 204.074219 317.804688 213.589844 318.578125 218.871094 324.851562 C 218.871094 324.851562 230.167969 338.421875 230.167969 338.421875 C 230.230469 338.496094 230.296875 338.570312 230.351562 338.652344 C 230.351562 338.652344 273.191406 389.425781 273.191406 389.425781 C 274.425781 390.886719 276.183594 391.636719 277.957031 391.636719 C 283.097656 391.753906 286.179688 385.300781 282.71875 381.382812 C 282.71875 381.382812 240.027344 330.78125 240.027344 330.78125 C 234.628906 324.707031 235.441406 314.582031 241.828125 309.527344 C 248.113281 304.320312 257.503906 305.160156 262.769531 311.414062 L 314.378906 372.605469 C 315.773438 374.253906 317.992188 375.09375 320.125 374.746094 L 322.796875 374.316406 C 335.492188 372.269531 348.789062 369.863281 361.261719 374.242188 C 363.136719 385.214844 368.332031 419.765625 363.605469 441.417969 C 357.339844 456.652344 359.113281 472.570312 361.878906 488.355469 L 303.777344 537.351562 C 286.667969 551.011719 292.394531 579.152344 313.449219 584.976562 C 305.234375 594.855469 304.898438 609.546875 313.273438 619.816406 C 321.234375 630.023438 336.671875 632.941406 347.8125 626.511719 C 348.3125 631.734375 350.292969 636.863281 353.828125 641.195312 C 361.023438 650.351562 374.265625 653.78125 385.007812 649.476562 C 385.335938 655.324219 387.539062 660.972656 391.421875 665.574219 C 396.113281 671.179688 402.707031 674.597656 409.863281 675.246094 L 433.011719 703.214844 C 434.242188 704.703125 436.023438 705.472656 437.816406 705.472656 C 442.9375 705.59375 446.011719 699.183594 442.613281 695.261719 C 442.613281 695.261719 424.027344 672.808594 424.027344 672.808594 C 427.167969 672.585938 467.046875 637.0625 470.539062 634.527344 C 489.601562 617.230469 506.277344 596.875 517.03125 573.367188 L 632.238281 668.71875 C 634.894531 670.914062 638.820312 670.542969 641.015625 667.890625 C 643.210938 665.242188 642.839844 661.308594 640.191406 659.113281 L 521.902344 561.214844 C 528.429688 542.421875 528.6875 528.117188 528.335938 521.699219 L 541.796875 510.554688 C 556.847656 522.425781 579.792969 515.078125 584.976562 496.542969 C 594.855469 504.757812 609.550781 505.09375 619.816406 496.71875 C 630.023438 488.757812 632.945312 473.320312 626.511719 462.179688 C 631.734375 461.679688 636.863281 459.695312 641.199219 456.164062 C 650.351562 448.96875 653.785156 435.722656 649.476562 424.984375 C 655.324219 424.65625 660.976562 422.453125 665.574219 418.570312 C 671.183594 413.875 674.613281 407.28125 675.257812 400.121094 L 703.214844 376.980469 C 709.398438 371.535156 701.777344 362.316406 695.265625 367.375 C 695.265625 367.375 672.8125 385.960938 672.8125 385.960938 C 672.585938 382.824219 637.066406 342.941406 634.53125 339.449219 C 617.230469 320.386719 596.878906 303.710938 573.371094 292.957031 L 668.722656 177.75 C 670.917969 175.097656 670.546875 171.167969 667.894531 168.972656 C 665.242188 166.777344 661.3125 167.148438 659.117188 169.800781 L 561.214844 288.085938 C 535.921875 279.304688 518.765625 281.882812 518.007812 282 C 514.617188 282.542969 512.320312 285.71875 512.84375 289.109375 C 513.371094 292.503906 516.558594 294.824219 519.945312 294.316406 C 553.160156 290.867188 596.9375 315.207031 625.097656 347.605469 L 659.351562 387.894531 C 664.757812 394.007812 663.835938 404.171875 657.367188 409.183594 C 651.378906 414.261719 641.695312 413.46875 636.644531 407.429688 C 636.671875 407.398438 601.996094 366.539062 601.988281 366.496094 C 599.765625 363.871094 595.828125 363.542969 593.203125 365.769531 C 590.574219 367.996094 590.25 371.925781 592.472656 374.554688 L 626.90625 415.210938 C 627.042969 415.453125 635.105469 424.980469 635.253906 425.1875 C 635.300781 425.238281 635.351562 425.300781 635.40625 425.359375 C 640.625 431.378906 639.753906 441.273438 633.574219 446.296875 C 627.308594 451.617188 617.8125 450.878906 612.464844 444.640625 C 612.496094 444.621094 569.191406 393.558594 569.1875 393.527344 C 566.960938 390.902344 563.03125 390.574219 560.402344 392.800781 C 557.773438 395.023438 557.449219 398.957031 559.671875 401.585938 L 602.808594 452.515625 C 602.847656 452.617188 613.882812 465.738281 613.949219 465.832031 C 619.25 471.847656 618.40625 481.800781 612.191406 486.855469 C 605.917969 492.183594 596.398438 491.414062 591.121094 485.140625 C 591.121094 485.140625 579.824219 471.570312 579.824219 471.570312 C 579.761719 471.492188 579.695312 471.421875 579.644531 471.339844 C 579.644531 471.339844 536.804688 420.566406 536.804688 420.566406 C 531.328125 414.445312 522.140625 422.121094 527.273438 428.605469 C 527.273438 428.605469 569.96875 479.207031 569.96875 479.207031 C 575.367188 485.28125 574.550781 495.40625 568.164062 500.460938 C 561.882812 505.667969 552.492188 504.828125 547.222656 498.574219 L 495.617188 437.382812 C 494.210938 435.707031 492.003906 434.902344 489.871094 435.246094 L 487.195312 435.671875 C 474.5 437.71875 461.207031 440.125 448.730469 435.75 C 446.859375 424.773438 441.660156 390.222656 446.386719 368.570312 C 452.652344 353.339844 450.878906 337.417969 448.113281 321.632812 L 506.214844 272.636719 C 523.324219 258.976562 517.597656 230.839844 496.542969 225.011719 C 504.761719 215.132812 505.09375 200.441406 496.71875 190.171875 C 488.757812 179.964844 473.324219 177.046875 462.179688 183.476562 C 461.683594 178.253906 459.695312 173.125 456.164062 168.789062 C 448.96875 159.636719 435.726562 156.207031 424.984375 160.511719 C 424.65625 154.664062 422.453125 149.015625 418.570312 144.414062 C 413.878906 138.808594 407.261719 135.390625 400.125 134.734375 L 376.980469 106.773438 C 371.535156 100.585938 362.320312 108.214844 367.378906 114.722656 C 367.378906 114.722656 385.964844 137.175781 385.964844 137.175781 C 382.824219 137.402344 342.941406 172.921875 339.453125 175.457031 C 320.390625 192.757812 303.714844 213.109375 292.960938 236.621094 L 177.753906 141.269531 C 175.101562 139.078125 171.171875 139.449219 168.976562 142.097656 C 166.78125 144.75 167.152344 148.679688 169.804688 150.875 L 288.089844 248.777344 C 281.5625 267.570312 281.304688 281.871094 281.65625 288.292969 L 268.199219 299.4375 C 253.363281 287.621094 230.148438 294.859375 225.015625 313.449219 C 215.136719 305.234375 200.441406 304.898438 190.175781 313.273438 C 179.96875 321.238281 177.046875 336.671875 183.480469 347.8125 C 178.257812 348.3125 173.128906 350.296875 168.792969 353.828125 C 159.640625 361.023438 156.207031 374.269531 160.511719 385.007812 C 154.664062 385.335938 149.015625 387.539062 144.414062 391.421875 C 138.808594 396.117188 135.378906 402.710938 134.734375 409.871094 L 106.777344 433.011719 C 100.59375 438.457031 108.214844 447.671875 114.726562 442.613281 Z M 435.613281 432.839844 C 415.304688 430.496094 390.210938 433.582031 377.160156 435.613281 C 379.5 415.308594 376.414062 390.21875 374.382812 377.164062 C 392.210938 379.449219 419.628906 376.574219 432.839844 374.382812 C 430.496094 394.691406 433.582031 419.785156 435.613281 432.839844 Z M 533.300781 501.410156 L 517.863281 514.191406 C 516.175781 515.585938 515.351562 517.789062 515.675781 519.949219 C 519.125 553.164062 494.789062 596.941406 462.386719 625.101562 L 422.097656 659.355469 C 415.984375 664.757812 405.820312 663.839844 400.8125 657.371094 C 395.734375 651.382812 396.523438 641.707031 402.558594 636.652344 C 402.589844 636.679688 443.453125 602.003906 443.496094 601.992188 C 446.125 599.765625 446.449219 595.832031 444.226562 593.203125 C 442 590.578125 438.066406 590.25 435.4375 592.476562 L 394.785156 626.90625 C 394.542969 627.042969 385.015625 635.105469 384.808594 635.257812 C 384.753906 635.300781 384.695312 635.351562 384.636719 635.40625 C 378.613281 640.628906 368.722656 639.753906 363.699219 633.574219 C 358.378906 627.3125 359.117188 617.816406 365.347656 612.472656 C 365.367188 612.5 416.433594 569.195312 416.464844 569.1875 C 419.09375 566.964844 419.421875 563.03125 417.195312 560.402344 C 414.96875 557.777344 411.035156 557.449219 408.410156 559.675781 L 357.476562 602.808594 C 357.378906 602.851562 344.253906 613.886719 344.160156 613.949219 C 338.148438 619.25 328.191406 618.40625 323.140625 612.195312 C 317.808594 605.921875 318.582031 596.402344 324.855469 591.125 C 324.855469 591.125 338.421875 579.828125 338.421875 579.828125 C 338.5 579.761719 338.574219 579.699219 338.65625 579.644531 C 338.65625 579.644531 389.429688 536.804688 389.429688 536.804688 C 395.546875 531.328125 387.871094 522.140625 381.386719 527.273438 C 381.386719 527.273438 330.785156 569.96875 330.785156 569.96875 C 324.710938 575.367188 314.589844 574.550781 309.53125 568.167969 C 304.324219 561.882812 305.167969 552.492188 311.417969 547.226562 L 372.613281 495.617188 C 374.28125 494.210938 375.09375 492.027344 374.75 489.871094 L 374.320312 487.195312 C 372.273438 474.5 369.867188 461.207031 374.246094 448.734375 C 385.21875 446.859375 419.769531 441.660156 441.421875 446.386719 C 456.640625 452.640625 472.476562 450.894531 488.359375 448.117188 L 533.300781 501.40625 Z M 292.136719 295.804688 C 293.820312 294.410156 294.644531 292.207031 294.320312 290.046875 C 290.648438 258.046875 314.972656 212.976562 347.609375 184.894531 L 387.898438 150.640625 C 388.226562 150.359375 388.566406 150.09375 388.917969 149.847656 C 395.074219 145.296875 404.472656 146.542969 409.1875 152.625 C 414.261719 158.613281 413.472656 168.296875 407.433594 173.347656 C 407.410156 173.308594 366.535156 208.003906 366.5 208.003906 C 363.875 210.230469 363.546875 214.164062 365.773438 216.789062 C 368.003906 219.425781 371.945312 219.734375 374.558594 217.519531 L 415.210938 183.085938 C 415.453125 182.949219 424.984375 174.886719 425.1875 174.738281 C 425.238281 174.695312 425.296875 174.648438 425.351562 174.59375 C 431.375 169.367188 441.269531 170.238281 446.296875 176.421875 C 451.621094 182.683594 450.878906 192.183594 444.644531 197.527344 C 444.628906 197.492188 393.554688 240.808594 393.53125 240.804688 C 390.902344 243.03125 390.578125 246.964844 392.800781 249.59375 C 395.035156 252.230469 398.972656 252.539062 401.589844 250.320312 C 401.589844 250.320312 452.519531 207.183594 452.519531 207.183594 C 452.617188 207.144531 465.742188 196.109375 465.835938 196.042969 C 471.847656 190.746094 481.804688 191.585938 486.855469 197.800781 C 492.1875 204.074219 491.417969 213.59375 485.140625 218.871094 C 485.140625 218.871094 471.574219 230.167969 471.574219 230.167969 C 471.496094 230.230469 471.425781 230.296875 471.339844 230.351562 C 471.339844 230.351562 420.570312 273.191406 420.570312 273.191406 C 416.128906 276.832031 418.90625 284.292969 424.59375 284.1875 C 426.011719 284.1875 427.441406 283.707031 428.609375 282.71875 L 479.210938 240.023438 C 485.285156 234.621094 495.40625 235.445312 500.464844 241.828125 C 505.671875 248.109375 504.828125 257.5 498.59375 262.757812 C 498.585938 262.761719 498.582031 262.765625 498.574219 262.769531 L 437.386719 314.375 C 435.925781 315.609375 435.121094 317.429688 435.171875 319.3125 C 435.519531 322.390625 436.179688 325.648438 436.605469 328.6875 C 438.339844 339.472656 439.429688 350.75 435.75 361.257812 C 424.777344 363.132812 390.226562 368.328125 368.574219 363.605469 C 353.371094 357.355469 337.523438 359.089844 321.636719 361.875 L 276.695312 308.585938 L 292.132812 295.804688 Z M 292.136719 295.804688 " fill-opacity="1" fill-rule="nonzero"/></g></svg>