<svg xmlns="http://www.w3.org/2000/svg" xmlns:xlink="http://www.w3.org/1999/xlink" width="1080" zoomAndPan="magnify" viewBox="0 0 810 809.999993" height="1080" preserveAspectRatio="xMidYMid meet" version="1.0"><defs><clipPath id="01b75f1813"><path d="M 81 290 L 703.5 290 L 703.5 696 L 81 696 Z M 81 290 " clip-rule="nonzero"/></clipPath><clipPath id="ee11c0e978"><path d="M 266 81 L 544 81 L 544 326 L 266 326 Z M 266 81 " clip-rule="nonzero"/></clipPath></defs><g clip-path="url(#01b75f1813)"><path fill="#8b6f5c" d="M 694.160156 433.71875 C 694.160156 384.902344 600.199219 389.746094 600.203125 433.0625 C 601.320312 466.480469 596.539062 471.636719 596.546875 493.242188 L 610.363281 493.242188 L 610.363281 445.132812 C 610.363281 425.957031 625.921875 410.402344 645.097656 410.402344 C 664.273438 410.402344 679.828125 425.957031 679.828125 445.132812 L 679.828125 527.972656 C 679.828125 547.144531 664.269531 562.703125 645.097656 562.703125 L 536.902344 562.703125 C 527.476562 562.703125 518.929688 558.945312 512.671875 552.847656 C 508.140625 556.230469 504.4375 560.730469 502.164062 566.371094 L 495.386719 586.222656 L 533.421875 602.660156 C 535.171875 600.835938 537.601562 599.78125 540.300781 599.78125 L 666.804688 599.78125 C 681.914062 599.78125 694.164062 587.535156 694.164062 572.425781 L 694.164062 433.71875 Z M 243.492188 666.726562 L 243.492188 695.996094 L 118.59375 695.996094 L 118.59375 666.726562 Z M 313.957031 546.507812 L 287.941406 546.507812 L 287.941406 512.3125 L 313.957031 512.3125 C 323.398438 512.3125 331.054688 519.964844 331.054688 529.410156 C 331.054688 538.851562 323.398438 546.507812 313.957031 546.507812 Z M 236.535156 434.898438 C 236.535156 388.28125 129.761719 376.476562 129.179688 435.15625 L 129.179688 573.863281 C 129.179688 588.972656 141.429688 601.21875 156.535156 601.21875 L 283.042969 601.21875 C 287.054688 601.21875 290.480469 603.550781 291.949219 607.285156 L 305.546875 641.808594 L 339.875 626.734375 C 340.292969 626.550781 340.71875 626.402344 341.144531 626.28125 L 321.179688 567.808594 C 320.914062 567.148438 320.628906 566.507812 320.324219 565.878906 C 319.394531 566.160156 318.410156 566.3125 317.386719 566.3125 L 210.273438 566.3125 C 202.773438 566.3125 195.976562 563.273438 191.058594 558.355469 C 186.148438 553.441406 183.109375 546.660156 183.101562 539.171875 L 178.484375 468.355469 C 178.136719 462.8125 182.347656 458.035156 187.890625 457.6875 C 193.433594 457.339844 198.210938 461.554688 198.558594 467.097656 L 203.171875 537.84375 C 203.226562 538.269531 203.253906 538.699219 203.253906 539.140625 C 203.253906 541.078125 204.042969 542.835938 205.3125 544.105469 C 206.582031 545.375 208.335938 546.160156 210.277344 546.160156 L 270.3125 546.160156 L 270.3125 512.308594 L 236.539062 512.308594 L 236.539062 434.894531 Z M 186.015625 290.667969 C 209.414062 290.667969 228.558594 309.8125 228.558594 333.210938 L 228.558594 344.40625 C 228.558594 367.804688 209.414062 386.949219 186.015625 386.949219 C 162.613281 386.949219 143.472656 367.804688 143.472656 344.40625 L 143.472656 333.210938 C 143.472656 309.8125 162.617188 290.667969 186.015625 290.667969 Z M 347.632812 645.277344 L 352.808594 660.445312 C 354.964844 664.605469 374.722656 667.488281 391.3125 666.242188 C 403.261719 665.347656 401.082031 682.34375 382.195312 689.554688 C 374.589844 692.460938 364.214844 694.515625 350.871094 694.511719 C 332.175781 695.71875 324.03125 688.855469 318.539062 674.808594 L 312.910156 660.511719 C 313.023438 660.46875 313.132812 660.421875 313.246094 660.375 Z M 81.304688 430.9375 C 81.304688 417.71875 92.023438 407 105.242188 407 C 109.570312 407 113.628906 408.148438 117.132812 410.160156 C 113.664062 417.207031 111.640625 425.453125 111.546875 434.980469 L 111.546875 435.070312 C 111.546875 435.070312 111.546875 573.863281 111.546875 573.863281 C 111.546875 598.703125 131.695312 618.851562 156.535156 618.851562 L 277.554688 618.851562 L 280.714844 626.882812 C 279.832031 639.296875 269.480469 649.09375 256.84375 649.09375 L 105.242188 649.09375 C 92.023438 649.09375 81.304688 638.375 81.304688 625.15625 Z M 700.195312 602.574219 C 702.253906 604.480469 703.542969 607.203125 703.542969 610.214844 L 703.542969 638.101562 C 703.542969 640.382812 701.679688 642.246094 699.398438 642.246094 L 566.476562 642.246094 C 564.199219 642.246094 562.332031 640.382812 562.332031 638.101562 L 562.332031 617.414062 L 666.804688 617.414062 C 680.050781 617.414062 691.960938 611.6875 700.195312 602.574219 Z M 679.074219 659.878906 L 679.074219 686.964844 C 679.074219 689.476562 677.019531 691.53125 674.507812 691.53125 L 591.371094 691.53125 C 588.855469 691.53125 586.800781 689.476562 586.800781 686.964844 L 586.800781 659.878906 Z M 526.296875 618.789062 L 489.667969 602.960938 L 470.53125 659.007812 C 468.375 663.167969 448.617188 666.050781 432.027344 664.808594 C 420.078125 663.914062 422.261719 680.910156 441.144531 688.117188 C 448.753906 691.023438 459.125 693.078125 472.472656 693.074219 C 491.167969 694.28125 499.3125 687.417969 504.800781 673.371094 L 526.292969 618.789062 Z M 662.191406 445.132812 L 662.191406 468.503906 L 627.996094 468.503906 L 627.996094 445.132812 C 627.996094 435.6875 635.652344 428.035156 645.09375 428.035156 C 654.539062 428.035156 662.191406 435.6875 662.191406 445.132812 Z M 627.996094 488.65625 L 662.191406 488.65625 L 662.191406 527.972656 C 662.191406 537.414062 654.539062 545.070312 645.09375 545.070312 L 536.898438 545.070312 C 527.457031 545.070312 519.800781 537.414062 519.800781 527.972656 C 519.800781 518.527344 527.457031 510.875 536.898438 510.875 L 627.996094 510.875 Z M 651.269531 293.800781 C 671.652344 293.800781 688.332031 310.476562 688.332031 330.859375 L 688.332031 347.617188 C 688.332031 368 671.652344 384.675781 651.269531 384.675781 C 630.886719 384.675781 614.210938 368 614.210938 347.617188 L 614.210938 330.859375 C 614.210938 310.476562 630.886719 293.800781 651.269531 293.800781 Z M 651.269531 293.800781 " fill-opacity="1" fill-rule="evenodd"/></g><g clip-path="url(#ee11c0e978)"><path fill="#8b6f5c" d="M 387.753906 85.558594 C 452.679688 67.242188 520.160156 105.03125 538.472656 169.960938 C 556.789062 234.886719 519 302.367188 454.070312 320.679688 C 413.027344 332.257812 370.960938 321.414062 340.941406 295.46875 L 266.902344 309.390625 C 266.902344 309.390625 303.472656 238.277344 303.351562 236.277344 C 287.820312 170.628906 322.824219 103.871094 387.753906 85.558594 Z M 451.570312 213.195312 L 494.976562 213.195312 C 500.542969 213.195312 505.054688 208.683594 505.054688 203.117188 C 505.054688 197.554688 500.542969 193.042969 494.976562 193.042969 L 451.570312 193.042969 C 446.003906 193.042969 441.492188 197.554688 441.492188 203.117188 C 441.492188 208.683594 446.003906 213.195312 451.570312 213.195312 Z M 351.09375 213.195312 L 410.710938 213.195312 C 416.273438 213.195312 420.785156 208.683594 420.785156 203.117188 C 420.785156 197.554688 416.273438 193.042969 410.710938 193.042969 L 351.09375 193.042969 C 345.527344 193.042969 341.015625 197.554688 341.015625 203.117188 C 341.015625 208.683594 345.527344 213.195312 351.09375 213.195312 Z M 357.996094 258.046875 L 376.640625 258.046875 C 382.207031 258.046875 386.71875 253.535156 386.71875 247.972656 C 386.71875 242.40625 382.207031 237.894531 376.640625 237.894531 L 357.996094 237.894531 C 352.429688 237.894531 347.917969 242.40625 347.917969 247.972656 C 347.917969 253.535156 352.429688 258.046875 357.996094 258.046875 Z M 376.511719 168.339844 L 469.558594 168.339844 C 475.121094 168.339844 479.636719 163.828125 479.636719 158.265625 C 479.636719 152.699219 475.121094 148.1875 469.558594 148.1875 L 376.511719 148.1875 C 370.949219 148.1875 366.4375 152.699219 366.4375 158.265625 C 366.4375 163.828125 370.949219 168.339844 376.511719 168.339844 Z M 414.863281 258.046875 L 488.078125 258.046875 C 493.640625 258.046875 498.152344 253.535156 498.152344 247.972656 C 498.152344 242.40625 493.640625 237.894531 488.078125 237.894531 L 414.863281 237.894531 C 409.296875 237.894531 404.785156 242.40625 404.785156 247.972656 C 404.785156 253.535156 409.296875 258.046875 414.863281 258.046875 Z M 414.863281 258.046875 " fill-opacity="1" fill-rule="evenodd"/></g></svg>